<svg width="69" height="30" viewBox="0 0 69 30" fill="none" xmlns="http://www.w3.org/2000/svg">
<path d="M19.4199 21.3173L25.4817 15.2395C25.6435 15.082 25.7595 14.9376 25.8294 14.8063C25.9038 14.6751 25.9497 14.5329 25.9672 14.3797C25.9891 14.2266 26 14.0384 26 13.8153V11.4524C26 11.2292 25.9803 11.0455 25.941 10.9011C25.9016 10.7567 25.8338 10.6232 25.7376 10.5007C25.6457 10.3782 25.5167 10.236 25.3505 10.0741L23.9335 8.64322C23.7673 8.4857 23.6229 8.36099 23.5005 8.2691C23.378 8.17284 23.2446 8.10502 23.1003 8.06563C22.9603 8.02188 22.7788 8 22.5558 8H20.194C19.9666 8 19.7763 8.01094 19.6232 8.03282C19.4745 8.05032 19.3346 8.09626 19.2034 8.17065C19.0722 8.24504 18.9256 8.36099 18.7638 8.51852L12.6888 14.5898C12.234 15.0448 12.0044 15.5086 12 15.9812C12 16.4494 12.2318 16.9154 12.6954 17.3792L16.6382 21.3173C17.1018 21.7768 17.5676 22.0043 18.0356 21.9999C18.5036 21.9999 18.965 21.7724 19.4199 21.3173ZM21.4864 13.0736C21.2371 13.0736 21.0294 12.9904 20.8632 12.8242C20.7013 12.6535 20.6204 12.4435 20.6204 12.1941C20.6204 11.9534 20.7013 11.7499 20.8632 11.5837C21.0294 11.413 21.2371 11.3277 21.4864 11.3277C21.7357 11.3277 21.9435 11.413 22.1097 11.5837C22.2759 11.7499 22.359 11.9534 22.359 12.1941C22.359 12.4435 22.2759 12.6535 22.1097 12.8242C21.9435 12.9904 21.7357 13.0736 21.4864 13.0736Z" fill="#339901"/>
<path d="M32.9204 20V10.6943H35.7324L37.4209 17.042L39.0903 10.6943H41.9087V20H40.1631V12.6748L38.3159 20H36.5068L34.666 12.6748V20H32.9204ZM45.1777 16.6294C45.1777 17.2769 45.3364 17.7889 45.6538 18.1655C45.9543 18.521 46.3457 18.6987 46.8281 18.6987C47.3105 18.6987 47.6999 18.521 47.9961 18.1655C48.3135 17.7889 48.4722 17.2726 48.4722 16.6167C48.4722 15.9735 48.3135 15.4657 47.9961 15.0933C47.6999 14.7378 47.3105 14.5601 46.8281 14.5601C46.3457 14.5601 45.9543 14.7378 45.6538 15.0933C45.3364 15.4699 45.1777 15.9819 45.1777 16.6294ZM50.2876 13.2588H52.0713V14.5347C52.0713 15.0594 52.0247 15.4699 51.9316 15.7661C51.8428 16.0623 51.6756 16.3268 51.4302 16.5596C51.1466 16.8346 50.7594 17.0505 50.2686 17.207C50.1628 17.9645 49.8475 18.6099 49.3228 19.1431C48.6626 19.8159 47.8332 20.1523 46.8345 20.1523C46.1955 20.1523 45.6073 20.0127 45.0698 19.7334C44.4985 19.4372 44.069 19.0246 43.7812 18.4956C43.4935 17.9624 43.3496 17.3086 43.3496 16.5342C43.3496 15.9248 43.4956 15.3514 43.7876 14.814C44.0923 14.2511 44.5091 13.8258 45.0381 13.5381C45.5671 13.2503 46.1616 13.1064 46.8218 13.1064C47.8416 13.1064 48.6774 13.4365 49.3291 14.0967C49.9173 14.6976 50.241 15.4403 50.3003 16.3247C50.8504 16.1004 51.134 15.673 51.1509 15.0425H50.2876V13.2588ZM45.9268 12.4336L46.8027 10.5356H48.8022L47.0566 12.4336H45.9268ZM53.0044 12.3447V10.6943H54.7881V12.3447H53.0044ZM53.0044 20V13.2588H54.7881V20H53.0044Z" fill="#339901"/>
<rect x="0.5" y="0.5" width="68" height="29" rx="7.5" stroke="#339901"/>
</svg>
