<?xml version="1.0" encoding="utf-8"?>
<!-- Generator: Adobe Illustrator 24.0.0, SVG Export Plug-In . SVG Version: 6.00 Build 0)  -->
<svg version="1.1" id="Layer_1" xmlns="http://www.w3.org/2000/svg" xmlns:xlink="http://www.w3.org/1999/xlink" x="0px" y="0px"
	 viewBox="0 0 50 50" style="enable-background:new 0 0 50 50;" xml:space="preserve">
<style type="text/css">
	.st0{fill:#E26917;}
	.st1{fill:#FFFFFF;}
</style>
<g>
	<path class="st0" d="M42.6,50H7.4C3.3,50,0,46.7,0,42.6V7.4C0,3.3,3.3,0,7.4,0h35.3C46.7,0,50,3.3,50,7.4v35.3
		C50,46.7,46.7,50,42.6,50z"/>
	<g>
		<path class="st1" d="M9.4,17.5V8.6h2.8l1.5,5.7h0.1l1.5-5.7H18v8.8h-1.9v-6.1h-0.1l-1.6,6.1H13l-1.6-6.1h-0.1v6.1H9.4z"/>
		<path class="st1" d="M22.7,17.6c-0.6,0-1,0-1.4-0.1c-0.4-0.1-0.7-0.2-0.9-0.4s-0.4-0.4-0.5-0.7c-0.1-0.3-0.2-0.7-0.2-1.2
			c0-0.5-0.1-1-0.1-1.7V8.6h2V14c0,0.4,0,0.8,0,1.1c0,0.3,0.1,0.5,0.1,0.6c0.1,0.1,0.2,0.2,0.3,0.3c0.2,0,0.4,0.1,0.6,0.1
			c0.3,0,0.5,0,0.6-0.1c0.2,0,0.3-0.1,0.3-0.3c0.1-0.1,0.1-0.3,0.1-0.6c0-0.3,0-0.6,0-1.1V8.6h2v4.9c0,0.6,0,1.2,0,1.7
			c0,0.5-0.1,0.9-0.2,1.2c-0.1,0.3-0.3,0.5-0.5,0.7s-0.5,0.3-0.9,0.4S23.3,17.6,22.7,17.6z M22.1,7.8L20.8,6V6h1.8l0.9,1.8v0.1H22.1
			z M24.4,9.4V8.6h0.8c0.3,0,0.5-0.1,0.6-0.2c0.1-0.1,0.1-0.3,0.1-0.6V7.5H27v0.3c0,0.3,0,0.6-0.1,0.8c0,0.2-0.1,0.4-0.3,0.5
			c-0.1,0.1-0.3,0.2-0.6,0.3c-0.3,0.1-0.6,0.1-1.1,0.1H24.4z"/>
		<path class="st1" d="M27.3,17.5V8.6h2l2.5,4.8h0.1V8.6h1.9v8.8h-1.8l-2.6-5.2h-0.1v5.2H27.3z"/>
		<path class="st1" d="M38.5,17.6c-0.6,0-1,0-1.4-0.1s-0.7-0.2-1-0.4c-0.3-0.2-0.5-0.5-0.6-0.8c-0.1-0.3-0.2-0.8-0.3-1.3
			c-0.1-0.5-0.1-1.1-0.1-1.9c0-0.7,0-1.3,0.1-1.9c0.1-0.5,0.2-0.9,0.3-1.3c0.1-0.3,0.3-0.6,0.6-0.8c0.3-0.2,0.6-0.3,1-0.4
			c0.4-0.1,0.9-0.1,1.5-0.1c0.3,0,0.5,0,0.8,0c0.3,0,0.6,0.1,0.9,0.1c0.3,0,0.6,0.1,0.8,0.1v1.4c-0.3,0-0.5-0.1-0.8-0.1
			c-0.2,0-0.5,0-0.7-0.1c-0.2,0-0.4,0-0.5,0c-0.4,0-0.7,0-1,0c-0.3,0-0.5,0.1-0.6,0.2s-0.3,0.2-0.4,0.4c-0.1,0.2-0.1,0.5-0.2,0.9
			c0,0.4,0,0.8,0,1.4c0,0.5,0,1,0,1.3c0,0.4,0.1,0.6,0.1,0.9c0.1,0.2,0.1,0.4,0.3,0.5c0.1,0.1,0.3,0.2,0.4,0.2
			c0.2,0,0.4,0.1,0.7,0.1c0.1,0,0.2,0,0.3,0c0.1,0,0.2,0,0.3,0c0.1,0,0.2,0,0.3,0v-2.1h-1.1v-1.5h2.9v4.9c-0.3,0.1-0.5,0.1-0.9,0.1
			c-0.3,0-0.6,0.1-0.9,0.1C39.1,17.5,38.8,17.6,38.5,17.6z"/>
		<path class="st1" d="M12.7,29.2v-8.8h2V24h0.6l2-3.6h2.1l-2.5,4.2l2.5,4.6h-2.2l-1.9-3.7h-0.6v3.7H12.7z"/>
		<path class="st1" d="M20.3,29.2v-8.8h2v3.5h2.4v-3.5h2v8.8h-2v-3.6h-2.4v3.6H20.3z"/>
		<path class="st1" d="M27.5,29.2l2.4-8.8h2.7l2.4,8.8h-2l-0.5-1.8h-2.6l-0.4,1.8H27.5z M30.2,25.9h1.9l-0.9-3.7h-0.1L30.2,25.9z"/>
		<path class="st1" d="M35.9,29.2v-8.8h2v8.8H35.9z"/>
		<path class="st1" d="M5.1,41v-7.2H3v-1.6h6.1v1.6H7.1V41H5.1z"/>
		<path class="st1" d="M10.1,41v-8.8h3.7c0.5,0,1,0.1,1.3,0.2c0.3,0.1,0.6,0.3,0.7,0.6c0.2,0.2,0.3,0.5,0.3,0.9
			c0.1,0.4,0.1,0.8,0.1,1.2c0,0.3,0,0.7-0.1,1c0,0.3-0.1,0.6-0.3,0.9c-0.1,0.3-0.4,0.5-0.7,0.6l1.2,3.5h-2l-1.1-3.5l0.4,0.2
			c-0.1,0-0.1,0.1-0.2,0.1c-0.1,0-0.2,0-0.3,0h-1.2V41H10.1z M12.1,36.3h1.1c0.3,0,0.5,0,0.6-0.1s0.3-0.1,0.3-0.2
			c0.1-0.1,0.1-0.2,0.1-0.4c0-0.2,0-0.4,0-0.6c0-0.3,0-0.5,0-0.6c0-0.2-0.1-0.3-0.1-0.4c-0.1-0.1-0.2-0.2-0.3-0.2
			c-0.1,0-0.4-0.1-0.6-0.1h-1.1V36.3z"/>
		<path class="st1" d="M20.7,41.1c-0.6,0-1,0-1.4-0.1c-0.4-0.1-0.7-0.2-0.9-0.4s-0.4-0.4-0.5-0.7c-0.1-0.3-0.2-0.7-0.2-1.2
			c0-0.5-0.1-1-0.1-1.7v-4.9h2v5.4c0,0.4,0,0.8,0,1.1c0,0.3,0.1,0.5,0.1,0.6c0.1,0.1,0.2,0.2,0.3,0.3c0.2,0,0.4,0.1,0.6,0.1
			c0.3,0,0.5,0,0.6-0.1c0.2,0,0.3-0.1,0.3-0.3c0.1-0.1,0.1-0.3,0.1-0.6c0-0.3,0-0.6,0-1.1v-5.4h2V37c0,0.6,0,1.2,0,1.7
			c0,0.5-0.1,0.9-0.2,1.2c-0.1,0.3-0.3,0.6-0.5,0.7s-0.5,0.3-0.9,0.4C21.7,41,21.2,41.1,20.7,41.1z M22.3,32.9v-0.7h0.8
			c0.3,0,0.5-0.1,0.6-0.2c0.1-0.1,0.1-0.3,0.1-0.6V31H25v0.3c0,0.3,0,0.6-0.1,0.8c0,0.2-0.1,0.4-0.3,0.5c-0.1,0.1-0.3,0.2-0.6,0.3
			c-0.3,0.1-0.6,0.1-1.1,0.1H22.3z"/>
		<path class="st1" d="M28.4,41.1c-0.6,0-1.1,0-1.5-0.1c-0.4-0.1-0.7-0.2-1-0.4s-0.4-0.5-0.5-0.8c-0.1-0.3-0.2-0.8-0.2-1.3
			c0-0.5-0.1-1.2-0.1-1.9c0-0.8,0-1.4,0.1-1.9c0-0.5,0.1-1,0.2-1.3c0.1-0.3,0.3-0.6,0.5-0.8s0.6-0.3,1-0.4c0.4-0.1,0.9-0.1,1.5-0.1
			c0.6,0,1.1,0,1.5,0.1c0.4,0.1,0.7,0.2,1,0.4c0.2,0.2,0.4,0.5,0.5,0.8c0.1,0.3,0.2,0.8,0.2,1.3c0,0.5,0.1,1.2,0.1,1.9
			c0,0.8,0,1.4-0.1,1.9c0,0.5-0.1,1-0.2,1.3c-0.1,0.3-0.3,0.6-0.5,0.8c-0.2,0.2-0.6,0.3-1,0.4C29.5,41,29,41.1,28.4,41.1z
			 M28.4,39.5c0.3,0,0.5,0,0.6,0c0.2,0,0.3-0.1,0.4-0.2c0.1-0.1,0.2-0.2,0.2-0.5s0.1-0.5,0.1-0.9c0-0.4,0-0.8,0-1.4c0-0.6,0-1,0-1.4
			c0-0.4,0-0.7-0.1-0.9s-0.1-0.4-0.2-0.5c-0.1-0.1-0.2-0.2-0.4-0.2c-0.2,0-0.4,0-0.6,0c-0.2,0-0.5,0-0.6,0c-0.2,0-0.3,0.1-0.4,0.2
			c-0.1,0.1-0.2,0.2-0.2,0.5c0,0.2-0.1,0.5-0.1,0.9c0,0.4,0,0.8,0,1.4c0,0.6,0,1,0,1.4c0,0.4,0,0.7,0.1,0.9c0,0.2,0.1,0.4,0.2,0.5
			c0.1,0.1,0.2,0.2,0.4,0.2C27.9,39.5,28.1,39.5,28.4,39.5z M29.6,32.9v-0.7h0.8c0.3,0,0.5-0.1,0.6-0.2c0.1-0.1,0.1-0.3,0.1-0.6V31
			h1.2v0.3c0,0.3,0,0.6-0.1,0.8c0,0.2-0.1,0.4-0.3,0.5c-0.1,0.1-0.3,0.2-0.6,0.3c-0.3,0.1-0.6,0.1-1.1,0.1H29.6z"/>
		<path class="st1" d="M33.1,41v-8.8h2l2.5,4.8h0.1v-4.8h1.9V41h-1.8L35,35.8H35V41H33.1z"/>
		<path class="st1" d="M44.3,41.1c-0.6,0-1,0-1.4-0.1c-0.4-0.1-0.7-0.2-1-0.4c-0.3-0.2-0.5-0.5-0.6-0.8C41.1,39.4,41,39,41,38.4
			c-0.1-0.5-0.1-1.1-0.1-1.9c0-0.7,0-1.3,0.1-1.9c0.1-0.5,0.2-0.9,0.3-1.3c0.1-0.3,0.3-0.6,0.6-0.8c0.3-0.2,0.6-0.3,1-0.4
			c0.4-0.1,0.9-0.1,1.5-0.1c0.3,0,0.5,0,0.8,0c0.3,0,0.6,0.1,0.9,0.1c0.3,0,0.6,0.1,0.8,0.1v1.4c-0.3,0-0.5-0.1-0.8-0.1
			c-0.2,0-0.5,0-0.7-0.1c-0.2,0-0.4,0-0.5,0c-0.4,0-0.7,0-1,0c-0.3,0-0.5,0.1-0.6,0.2c-0.2,0.1-0.3,0.2-0.4,0.4
			c-0.1,0.2-0.1,0.5-0.2,0.9c0,0.4,0,0.8,0,1.4c0,0.5,0,1,0,1.3s0.1,0.7,0.1,0.9c0.1,0.2,0.1,0.4,0.3,0.5c0.1,0.1,0.3,0.2,0.4,0.2
			c0.2,0,0.4,0.1,0.7,0.1c0.1,0,0.2,0,0.3,0c0.1,0,0.2,0,0.3,0c0.1,0,0.2,0,0.3,0v-2.1h-1.1v-1.5H47v4.9c-0.3,0.1-0.5,0.1-0.9,0.1
			c-0.3,0-0.6,0.1-0.9,0.1C44.8,41.1,44.6,41.1,44.3,41.1z"/>
	</g>
</g>
</svg>
