<?xml version="1.0" encoding="utf-8"?>
<!-- Generator: Adobe Illustrator 24.0.0, SVG Export Plug-In . SVG Version: 6.00 Build 0)  -->
<svg version="1.1" id="Layer_1" xmlns="http://www.w3.org/2000/svg" xmlns:xlink="http://www.w3.org/1999/xlink" x="0px" y="0px"
	 viewBox="0 0 50 50" style="enable-background:new 0 0 50 50;" xml:space="preserve">
<style type="text/css">
	.st0{fill:url(#SVGID_1_);}
	.st1{fill:#FFFFFF;}
	.st2{fill:url(#SVGID_2_);}
	.st3{fill:url(#SVGID_3_);}
	.st4{fill:url(#SVGID_4_);}
	.st5{fill:url(#SVGID_5_);}
	.st6{fill:url(#SVGID_6_);}
	.st7{fill:url(#SVGID_7_);}
	.st8{fill:url(#SVGID_8_);}
</style>
<linearGradient id="SVGID_1_" gradientUnits="userSpaceOnUse" x1="25" y1="50" x2="25" y2="-9.094947e-13">
	<stop  offset="0" style="stop-color:#1A0A25"/>
	<stop  offset="1" style="stop-color:#5D2385"/>
</linearGradient>
<path class="st0" d="M42,50H8c-4.4,0-8-3.6-8-8V8c0-4.4,3.6-8,8-8h34c4.4,0,8,3.6,8,8v34C50,46.4,46.4,50,42,50z"/>
<g>
	<g>
		<g>
			<path class="st1" d="M14.3,20c0.1,0.8,0.9,1.2,1.9,1.2c1,0,1.7-0.5,1.7-1.2c0-0.6-0.4-0.9-1.5-1.2l-1.2-0.3
				c-1.7-0.4-2.5-1.2-2.5-2.5c0-1.7,1.5-2.8,3.5-2.8c2.1,0,3.5,1.1,3.5,2.7h-1.8c-0.1-0.8-0.7-1.2-1.7-1.2c-0.9,0-1.6,0.4-1.6,1.1
				c0,0.6,0.4,0.9,1.5,1.1l1.1,0.2c1.8,0.4,2.6,1.2,2.6,2.6c0,1.8-1.4,2.9-3.7,2.9c-2.2,0-3.6-1-3.6-2.8H14.3z"/>
			<path class="st1" d="M26.1,20.4h-3.2l-0.7,2.2h-2l3.2-9.1h2.2l3.2,9.1h-2L26.1,20.4z M23.8,10c-0.3,0-0.4,0.3-0.4,0.7h-1
				c0-1,0.6-1.6,1.4-1.6c0.9,0,1.2,0.8,1.6,0.8c0.3,0,0.4-0.3,0.4-0.7h1c0,1-0.6,1.6-1.4,1.6C24.5,10.8,24.3,10,23.8,10z M23.5,11.1
				c0,0.4,0.5,0.8,1.1,0.8c0.6,0,1-0.3,1.1-0.8h1.1c0,0.9-0.9,1.7-2.2,1.7c-1.4,0-2.2-0.8-2.2-1.7H23.5z M23.3,19h2.4l-1.2-3.7h0
				L23.3,19z"/>
			<path class="st1" d="M29.8,22.6v-9.1h1.6l4.3,5.9h0.1v-5.9h1.8v9.1h-1.6l-4.3-6h-0.1v6H29.8z"/>
		</g>
		<g>
			<path class="st1" d="M14.3,20c0.1,0.8,0.9,1.2,1.9,1.2c1,0,1.7-0.5,1.7-1.2c0-0.6-0.4-0.9-1.5-1.2l-1.2-0.3
				c-1.7-0.4-2.5-1.2-2.5-2.5c0-1.7,1.5-2.8,3.5-2.8c2.1,0,3.5,1.1,3.5,2.7h-1.8c-0.1-0.8-0.7-1.2-1.7-1.2c-0.9,0-1.6,0.4-1.6,1.1
				c0,0.6,0.4,0.9,1.5,1.1l1.1,0.2c1.8,0.4,2.6,1.2,2.6,2.6c0,1.8-1.4,2.9-3.7,2.9c-2.2,0-3.6-1-3.6-2.8H14.3z"/>
			<path class="st1" d="M26.1,20.4h-3.2l-0.7,2.2h-2l3.2-9.1h2.2l3.2,9.1h-2L26.1,20.4z M23.8,10c-0.3,0-0.4,0.3-0.4,0.7h-1
				c0-1,0.6-1.6,1.4-1.6c0.9,0,1.2,0.8,1.6,0.8c0.3,0,0.4-0.3,0.4-0.7h1c0,1-0.6,1.6-1.4,1.6C24.5,10.8,24.3,10,23.8,10z M23.5,11.1
				c0,0.4,0.5,0.8,1.1,0.8c0.6,0,1-0.3,1.1-0.8h1.1c0,0.9-0.9,1.7-2.2,1.7c-1.4,0-2.2-0.8-2.2-1.7H23.5z M23.3,19h2.4l-1.2-3.7h0
				L23.3,19z"/>
			<path class="st1" d="M29.8,22.6v-9.1h1.6l4.3,5.9h0.1v-5.9h1.8v9.1h-1.6l-4.3-6h-0.1v6H29.8z"/>
		</g>
	</g>
	<g>
		<g>
			<path class="st1" d="M13.1,36.8V33H9v3.8H7.1v-9.1H9v3.7h4.1v-3.7H15v9.1H13.1z"/>
			<path class="st1" d="M21.8,34.6h-3.2l-0.7,2.2h-2l3.2-9.1h2.2l3.2,9.1h-2L21.8,34.6z M17.8,25h1.7l1.5,2h-1.4L17.8,25z M19,33.2
				h2.4l-1.2-3.7h0L19,33.2z"/>
			<path class="st1" d="M25.5,36.8v-9.1h1.6l4.3,5.9h0.1v-5.9h1.8v9.1h-1.6l-4.3-6h-0.1v6H25.5z"/>
			<path class="st1" d="M38.8,37c-2.7,0-4.4-1.8-4.4-4.7c0-2.9,1.7-4.7,4.3-4.7c2.1,0,3.7,1.3,4,3.1h-1.9c-0.3-1-1.1-1.5-2.1-1.5
				c-1.5,0-2.4,1.1-2.4,3.1c0,2,1,3.2,2.5,3.2c1.2,0,2.1-0.8,2.1-1.9l0-0.1h-2v-1.4h3.8v1C42.9,35.5,41.4,37,38.8,37z"/>
		</g>
		<g>
			<path class="st1" d="M13.1,36.8V33H9v3.8H7.1v-9.1H9v3.7h4.1v-3.7H15v9.1H13.1z"/>
			<path class="st1" d="M21.8,34.6h-3.2l-0.7,2.2h-2l3.2-9.1h2.2l3.2,9.1h-2L21.8,34.6z M17.8,25h1.7l1.5,2h-1.4L17.8,25z M19,33.2
				h2.4l-1.2-3.7h0L19,33.2z"/>
			<path class="st1" d="M25.5,36.8v-9.1h1.6l4.3,5.9h0.1v-5.9h1.8v9.1h-1.6l-4.3-6h-0.1v6H25.5z"/>
			<path class="st1" d="M38.8,37c-2.7,0-4.4-1.8-4.4-4.7c0-2.9,1.7-4.7,4.3-4.7c2.1,0,3.7,1.3,4,3.1h-1.9c-0.3-1-1.1-1.5-2.1-1.5
				c-1.5,0-2.4,1.1-2.4,3.1c0,2,1,3.2,2.5,3.2c1.2,0,2.1-0.8,2.1-1.9l0-0.1h-2v-1.4h3.8v1C42.9,35.5,41.4,37,38.8,37z"/>
		</g>
	</g>
</g>
</svg>
